<svg width="22" height="22" viewBox="0 0 22 22" fill="none" xmlns="http://www.w3.org/2000/svg">
<g clip-path="url(#clip0_7_920)">
<path d="M6.6 22H0.733334C0.538842 22 0.352316 21.9227 0.21479 21.7852C0.0772629 21.6477 1.17429e-06 21.4612 1.17429e-06 21.2667L1.17429e-06 15.4C-0.000258668 15.2548 0.0426097 15.1127 0.123172 14.9919C0.203733 14.8711 0.318361 14.7769 0.452522 14.7212C0.586683 14.6656 0.734335 14.6511 0.876761 14.6795C1.01919 14.7079 1.14997 14.778 1.25253 14.8808L3.66667 17.2964L20.7475 0.214132L21.7859 1.25253L4.7036 18.3333L7.1192 20.7475C7.22202 20.85 7.29208 20.9808 7.32048 21.1232C7.34889 21.2657 7.33436 21.4133 7.27875 21.5475C7.22314 21.6816 7.12894 21.7963 7.00811 21.8768C6.88727 21.9574 6.74523 22.0003 6.6 22Z" fill="#870404"/>
</g>
<defs>
<clipPath id="clip0_7_920">
<rect width="22" height="22" fill="white" transform="matrix(1 0 0 -1 0 22)"/>
</clipPath>
</defs>
</svg>
