<svg width="81" height="81" viewBox="0 0 81 81" fill="none" xmlns="http://www.w3.org/2000/svg">
<path d="M67.5 69.1875H13.5C9.7875 69.1875 6.75 66.15 6.75 62.4375V18.5625C6.75 14.85 9.7875 11.8125 13.5 11.8125H67.5C71.2125 11.8125 74.25 14.85 74.25 18.5625V62.4375C74.25 66.15 71.2125 69.1875 67.5 69.1875Z" fill="#C0E9FF"/>
<path d="M59.0625 32.0625C61.8584 32.0625 64.125 29.7959 64.125 27C64.125 24.2041 61.8584 21.9375 59.0625 21.9375C56.2666 21.9375 54 24.2041 54 27C54 29.7959 56.2666 32.0625 59.0625 32.0625Z" fill="#B3DDF5"/>
<path d="M33.75 27L15.1875 54H52.3125L33.75 27Z" fill="#9AC9E3"/>
<path d="M52.3125 37.125L38.8125 54H65.8125L52.3125 37.125Z" fill="#B3DDF5"/>
<path d="M69.5 74.625C74.7467 74.625 79 70.3717 79 65.125C79 59.8783 74.7467 55.625 69.5 55.625C64.2533 55.625 60 59.8783 60 65.125C60 70.3717 64.2533 74.625 69.5 74.625Z" fill="#00229E"/>
<path d="M67.6001 59.425H71.4001V70.825H67.6001V59.425Z" fill="white"/>
<path d="M63.8 63.225H75.2V67.025H63.8V63.225Z" fill="white"/>
</svg>
