<svg width="13" height="17" viewBox="0 0 13 17" fill="none" xmlns="http://www.w3.org/2000/svg">
<path d="M10.7059 9.38235H1.88235C1.39504 9.38235 1 9.7774 1 10.2647V15.1176C1 15.605 1.39504 16 1.88235 16H10.7059C11.1932 16 11.5882 15.605 11.5882 15.1176V10.2647C11.5882 9.7774 11.1932 9.38235 10.7059 9.38235Z" stroke="white" stroke-width="0.882353"/>
<path d="M1.88232 8.5C1.88232 8.26598 1.97529 8.04155 2.14076 7.87608C2.30623 7.71061 2.53066 7.61765 2.76468 7.61765H9.8235C10.0575 7.61765 10.2819 7.71061 10.4474 7.87608C10.6129 8.04155 10.7059 8.26598 10.7059 8.5V9.38235H1.88232V8.5Z" stroke="white" stroke-width="0.882353"/>
<path d="M6.29403 6.29412C7.75596 6.29412 8.94109 5.10899 8.94109 3.64706C8.94109 2.18513 7.75596 1 6.29403 1C4.8321 1 3.64697 2.18513 3.64697 3.64706C3.64697 5.10899 4.8321 6.29412 6.29403 6.29412Z" stroke="white" stroke-width="0.882353"/>
<path d="M6.50762 2.79118L6.08057 4.50294" stroke="white" stroke-width="0.882353" stroke-linecap="round"/>
</svg>
