<svg width="22" height="22" viewBox="0 0 22 22" fill="none" xmlns="http://www.w3.org/2000/svg">
<g clip-path="url(#clip0_7_913)">
<path d="M15.4 1.17429e-06H21.2667C21.4612 1.17429e-06 21.6477 0.0772629 21.7852 0.21479C21.9227 0.352316 22 0.538842 22 0.733334V6.6C22.0003 6.74523 21.9574 6.88727 21.8768 7.00811C21.7963 7.12894 21.6816 7.22314 21.5475 7.27875C21.4133 7.33436 21.2657 7.34889 21.1232 7.32048C20.9808 7.29208 20.85 7.22202 20.7475 7.1192L18.3333 4.7036L1.25253 21.7859L0.214132 20.7475L17.2964 3.66667L14.8808 1.25253C14.778 1.14997 14.7079 1.01919 14.6795 0.876761C14.6511 0.734335 14.6656 0.586683 14.7212 0.452522C14.7769 0.318361 14.8711 0.203733 14.9919 0.123172C15.1127 0.0426097 15.2548 -0.000258668 15.4 1.17429e-06Z" fill="#1A00BB"/>
</g>
<defs>
<clipPath id="clip0_7_913">
<rect width="22" height="22" fill="white" transform="matrix(-1 0 0 1 22 0)"/>
</clipPath>
</defs>
</svg>
