<svg width="69" height="69" viewBox="0 0 69 69" fill="none" xmlns="http://www.w3.org/2000/svg">
<rect y="0.0825195" width="65.8092" height="65.8092" rx="6.80785" fill="#00229E"/>
<rect opacity="0.2" x="3.02588" y="3.10825" width="65.8092" height="65.8092" rx="6.80785" fill="#00229E"/>
<path d="M28.6582 38.4476L43.3494 23.7564C43.6961 23.4097 44.1006 23.2363 44.5629 23.2363C45.0251 23.2363 45.4296 23.4097 45.7763 23.7564C46.123 24.1031 46.2963 24.515 46.2963 24.9923C46.2963 25.4696 46.123 25.881 45.7763 26.2266L29.8716 42.1746C29.5249 42.5213 29.1204 42.6946 28.6582 42.6946C28.1959 42.6946 27.7914 42.5213 27.4447 42.1746L19.9908 34.7206C19.6441 34.3739 19.4777 33.9625 19.4915 33.4864C19.5054 33.0103 19.6862 32.5983 20.0341 32.2504C20.382 31.9026 20.7939 31.7292 21.2701 31.7304C21.7462 31.7315 22.1576 31.9049 22.5043 32.2504L28.6582 38.4476Z" fill="white"/>
</svg>
