<svg width="9" height="12" viewBox="0 0 9 12" fill="none" xmlns="http://www.w3.org/2000/svg">
<path d="M7.41667 6.54169H1.58333C1.26117 6.54169 1 6.80285 1 7.12502V10.3334C1 10.6555 1.26117 10.9167 1.58333 10.9167H7.41667C7.73883 10.9167 8 10.6555 8 10.3334V7.12502C8 6.80285 7.73883 6.54169 7.41667 6.54169Z" stroke="#2D2D2D" stroke-width="0.583333"/>
<path d="M1.58325 5.95833C1.58325 5.80362 1.64471 5.65525 1.75411 5.54585C1.8635 5.43646 2.01188 5.375 2.16659 5.375H6.83325C6.98796 5.375 7.13634 5.43646 7.24573 5.54585C7.35513 5.65525 7.41659 5.80362 7.41659 5.95833V6.54167H1.58325V5.95833Z" stroke="#2D2D2D" stroke-width="0.583333"/>
<path d="M4.5 4.5C5.4665 4.5 6.25 3.7165 6.25 2.75C6.25 1.7835 5.4665 1 4.5 1C3.5335 1 2.75 1.7835 2.75 2.75C2.75 3.7165 3.5335 4.5 4.5 4.5Z" stroke="#2D2D2D" stroke-width="0.583333"/>
<path d="M4.64122 2.18417L4.35889 3.31584" stroke="#2D2D2D" stroke-width="0.583333" stroke-linecap="round"/>
</svg>
